<svg width="512" height="512" viewBox="0 0 512 512" fill="none" xmlns="http://www.w3.org/2000/svg">
<g id="volcano 1" clip-path="url(#clip0)">
<g id="Volcano">
<g id="dropbg1">
<path id="Vector" d="M196.001 121C187.71 121 181.001 114.291 181.001 106C181.001 81.186 160.815 61 136.001 61C127.71 61 121.001 54.291 121.001 46C121.001 37.709 127.71 31 136.001 31C177.354 31 211.001 64.647 211.001 106C211.001 114.291 204.292 121 196.001 121Z" fill="#FABE2C"/>
</g>
<g id="dropbg2">
<path id="Vector_2" d="M309 121C300.709 121 294 114.291 294 106C294 64.647 327.647 31 369 31C377.291 31 384 37.709 384 46C384 54.291 377.291 61 369 61C344.186 61 324 81.186 324 106C324 114.291 317.291 121 309 121Z" fill="#FF9100"/>
</g>
<g id="drop1">
<path id="Vector_3" d="M76 61C84.2843 61 91 54.2843 91 46C91 37.7157 84.2843 31 76 31C67.7157 31 61 37.7157 61 46C61 54.2843 67.7157 61 76 61Z" fill="#FABE2C"/>
</g>
<g id="drop2">
<path id="Vector_4" d="M128 121C136.284 121 143 114.284 143 106C143 97.7157 136.284 91 128 91C119.716 91 113 97.7157 113 106C113 114.284 119.716 121 128 121Z" fill="#FABE2C"/>
</g>
<g id="drop4">
<path id="Vector_5" d="M376 121C384.284 121 391 114.284 391 106C391 97.7154 384.284 90.9996 376 90.9996C367.715 90.9996 361 97.7154 361 106C361 114.284 367.715 121 376 121Z" fill="#FF9100"/>
</g>
<g id="drop3">
<path id="Vector_6" d="M435 61C443.284 61 450 54.2843 450 46C450 37.7157 443.284 31 435 31C426.716 31 420 37.7157 420 46C420 54.2843 426.716 61 435 61Z" fill="#FF9100"/>
</g>
<g id="middle_drop">
<path id="Vector_7" d="M256 0C247.709 0 241 6.709 241 15V76C241 84.291 247.709 91 256 91C264.291 91 271 84.291 271 76V15C271 6.709 264.291 0 256 0V0Z" fill="#FABE2C"/>
<path id="Vector_8" d="M271 76V15C271 6.709 264.291 0 256 0V91C264.291 91 271 84.291 271 76Z" fill="#FF9100"/>
</g>
<g id="Volcano_body">
<path id="Vector_9" d="M511.222 492.253L481.222 401.253C479.977 397.488 477.267 394.368 473.707 392.581L418.259 365.364L390.223 281.253C389.491 279.041 388.245 277.034 386.605 275.394L361 249.79V166.001C361 157.71 354.291 151.001 346 151.001H301L274.126 166.001H256H235.374L211 151.001H166.001C157.71 151.001 151.001 157.71 151.001 166.001V249.79L125.396 275.394C123.755 277.035 122.51 279.041 121.778 281.253L93.7398 365.364L38.292 392.581C34.732 394.368 32.022 397.488 30.777 401.253L0.777153 492.253C-0.760841 496.823 0.0151562 501.862 2.82815 505.774C5.65513 509.685 10.1821 512 15.0011 512H256H301L317.874 497L331 512H496.999C501.818 512 506.345 509.686 509.172 505.774C511.984 501.862 512.761 496.823 511.222 492.253V492.253Z" fill="#9B786F"/>
<path id="Vector_10" d="M317.874 496.998L331 511.998H496.999C501.818 511.998 506.345 509.684 509.172 505.772C511.985 501.861 512.761 496.822 511.223 492.251L481.223 401.251C479.978 397.486 477.268 394.366 473.708 392.579L418.261 365.363L390.224 281.252C389.492 279.04 388.246 277.033 386.606 275.393L361.001 249.788V165.999C361.001 157.708 354.292 150.999 346.001 150.999H301.001L274.127 165.999H256.001V511.998H301.001L317.874 496.998Z" fill="#704C55"/>
<path id="Vector_11" d="M356.605 365.393L326.605 335.393C323.792 332.58 319.984 330.998 316.001 330.998H292.212L271.001 309.787V259.543L299.419 202.708C300.459 200.628 301.001 198.328 301.001 195.999V150.999L266.606 125.394C263.676 122.464 259.838 120.999 256.001 120.999C252.163 120.999 248.325 122.464 245.396 125.394L211.001 150.999V225.999C211.001 229.983 212.583 233.792 215.396 236.604L241.001 262.208V306.725L189.292 332.579C186.392 334.029 184.033 336.388 182.583 339.288L152.583 399.288C148.877 406.7 151.88 415.709 159.292 419.415C166.779 423.134 175.731 420.061 179.419 412.706L207.178 357.174L253.042 334.249L256.001 337.208L267.749 348.956L256.001 372.452L243.667 397.12L215.396 425.391C209.537 431.25 209.537 440.743 215.396 446.602C221.255 452.461 230.748 452.461 236.607 446.602L256.002 427.207L258.961 424.248L301.002 445.269V511.996H331.001V435.997C331.001 430.313 327.793 425.128 322.71 422.579L276.129 399.288L295.275 360.997H309.792L335.396 386.602C341.255 392.461 350.748 392.461 356.607 386.602C362.466 380.743 362.465 371.253 356.605 365.393Z" fill="#FF9100"/>
<path id="Vector_12" d="M301 445.27V511.998H331V435.998C331 430.314 327.792 425.129 322.709 422.58L276.127 399.289L295.273 360.999H309.79L335.395 386.603C341.254 392.462 350.747 392.462 356.606 386.603C362.465 380.745 362.465 371.252 356.606 365.393L326.606 335.393C323.793 332.58 319.985 330.998 316.001 330.998H292.212L271.001 309.787V259.543L299.419 202.707C300.459 200.627 301.001 198.327 301.001 195.998V150.998L266.606 125.394C263.676 122.464 259.838 120.999 256.001 120.999V337.209L267.749 348.957L256.001 372.453V427.208L258.96 424.249L301 445.27Z" fill="#FF641A"/>
</g>
</g>
</g>
<defs>
<clipPath id="clip0">
<rect width="512" height="512" fill="white"/>
</clipPath>
</defs>
</svg>
